<svg width="30" height="30" viewBox="0 0 30 30" fill="none" xmlns="http://www.w3.org/2000/svg">
<rect width="30" height="30" rx="15" fill="#742903"/>
<path d="M11.9778 15.375L8.785 11.6108C8.70149 11.5124 8.64793 11.3922 8.63069 11.2644C8.61344 11.1365 8.63323 11.0064 8.68771 10.8895C8.74219 10.7726 8.82907 10.6737 8.93804 10.6047C9.04702 10.5356 9.17351 10.4993 9.3025 10.5H19.12C19.4159 10.4993 19.7091 10.557 19.9827 10.6698C20.2562 10.7825 20.5049 10.9482 20.7144 11.1572C20.9239 11.3662 21.0901 11.6144 21.2035 11.8878C21.3169 12.1611 21.3753 12.4541 21.3753 12.75V15C21.3753 16.2428 20.3658 17.25 19.12 17.25M11.6252 18.75H19.1252M14.0927 8.25H16.6577C17.027 8.24997 17.3833 8.38616 17.6584 8.63249C17.9335 8.87882 18.1081 9.21797 18.1487 9.585L19.3149 20.085C19.3381 20.2946 19.3169 20.5068 19.2525 20.7077C19.1882 20.9085 19.0822 21.0935 18.9415 21.2507C18.8008 21.4078 18.6285 21.5335 18.436 21.6195C18.2434 21.7055 18.0348 21.75 17.8239 21.75H12.9264C12.7155 21.75 12.507 21.7055 12.3144 21.6195C12.1218 21.5335 11.9496 21.4078 11.8089 21.2507C11.6682 21.0935 11.5622 20.9085 11.4979 20.7077C11.4335 20.5068 11.4122 20.2946 11.4354 20.085L12.6017 9.585C12.6423 9.21797 12.8169 8.87882 13.092 8.63249C13.3671 8.38616 13.7234 8.24997 14.0927 8.25Z" stroke="#FFE5D9" stroke-width="1.5" stroke-linecap="round" stroke-linejoin="round"/>
</svg>
