<svg width="30" height="30" viewBox="0 0 30 30" fill="none" xmlns="http://www.w3.org/2000/svg">
<rect width="30" height="30" rx="15" fill="#742903"/>
<path d="M8.25098 16.5C8.87348 16.9815 9.80873 17.2628 10.876 17.25C11.9432 17.2628 12.8785 16.9815 13.501 16.5C14.1235 16.0185 15.0587 15.7373 16.126 15.75C17.1932 15.7373 18.1285 16.0185 18.751 16.5M12.001 8.25C11.7636 8.42038 11.5713 8.64598 11.4406 8.90732C11.31 9.16866 11.2449 9.45788 11.251 9.75C11.2449 10.0421 11.31 10.3313 11.4406 10.5927C11.5713 10.854 11.7636 11.0796 12.001 11.25M15.001 8.25C14.7636 8.42038 14.5713 8.64598 14.4406 8.90732C14.31 9.16866 14.2449 9.45788 14.251 9.75C14.2449 10.0421 14.31 10.3313 14.4406 10.5927C14.5713 10.854 14.7636 11.0796 15.001 11.25M18.5605 18.5445C18.8954 18.6983 19.263 18.7674 19.6309 18.7458C19.9988 18.7242 20.3558 18.6126 20.6705 18.4207C20.9852 18.2289 21.2479 17.9626 21.4356 17.6454C21.6233 17.3283 21.7302 16.9698 21.7469 16.6016C21.7636 16.2335 21.6896 15.8668 21.5314 15.5339C21.3732 15.2011 21.1356 14.9121 20.8396 14.6926C20.5436 14.473 20.1982 14.3295 19.8337 14.2747C19.4693 14.2199 19.0969 14.2554 18.7495 14.3782M8.25098 13.5H18.751V17.25C18.751 18.4435 18.2769 19.5881 17.433 20.432C16.589 21.2759 15.4445 21.75 14.251 21.75H12.751C11.5575 21.75 10.4129 21.2759 9.569 20.432C8.72508 19.5881 8.25098 18.4435 8.25098 17.25V13.5Z" stroke="#FF7632" stroke-width="1.5" stroke-linecap="round" stroke-linejoin="round"/>
</svg>
