<svg width="14" height="16" viewBox="0 0 14 16" fill="none" xmlns="http://www.w3.org/2000/svg">
<path d="M5.00001 7.17155C5.00001 7.70198 5.21072 8.21069 5.58579 8.58576C5.96086 8.96084 6.46957 9.17155 7.00001 9.17155C7.53044 9.17155 8.03915 8.96084 8.41422 8.58576C8.78929 8.21069 9.00001 7.70198 9.00001 7.17155C9.00001 6.64112 8.78929 6.13241 8.41422 5.75734C8.03915 5.38226 7.53044 5.17155 7.00001 5.17155C6.46957 5.17155 5.96086 5.38226 5.58579 5.75734C5.21072 6.13241 5.00001 6.64112 5.00001 7.17155Z" stroke="#FF7632" stroke-width="2" stroke-linecap="round" stroke-linejoin="round"/>
<path d="M10.7713 10.9429L7.94267 13.7715C7.69266 14.0213 7.35373 14.1616 7.00034 14.1616C6.64695 14.1616 6.30802 14.0213 6.05801 13.7715L3.22867 10.9429C2.48282 10.197 1.9749 9.24665 1.76913 8.21209C1.56337 7.17754 1.669 6.10519 2.07268 5.13067C2.47635 4.15615 3.15994 3.32321 4.037 2.73719C4.91405 2.15117 5.94519 1.83838 7.00001 1.83838C8.05483 1.83838 9.08596 2.15117 9.96302 2.73719C10.8401 3.32321 11.5237 4.15615 11.9273 5.13067C12.331 6.10519 12.4366 7.17754 12.2309 8.21209C12.0251 9.24665 11.5172 10.197 10.7713 10.9429Z" stroke="#FF7632" stroke-width="2" stroke-linecap="round" stroke-linejoin="round"/>
</svg>
