<svg width="345" height="345" viewBox="0 0 345 345" fill="none" xmlns="http://www.w3.org/2000/svg">
<rect width="345" height="345" rx="172.5" fill="#FFC8AD"/>
<mask id="mask0_24_87" style="mask-type:alpha" maskUnits="userSpaceOnUse" x="0" y="0" width="345" height="345">
<rect width="345" height="345" rx="172.5" fill="#FFD7FF"/>
</mask>
<g mask="url(#mask0_24_87)">
<path d="M-66 -652L-5.5 -587.167C28.5686 -550.658 28.5686 -494.009 -5.50001 -457.5V-457.5C-39.5687 -420.991 -39.5687 -364.342 -5.50002 -327.833V-327.833C28.5686 -291.325 28.5686 -234.676 -5.50002 -198.167V-198.167C-39.5687 -161.658 -39.5687 -105.009 -5.50003 -68.5V-68.5C28.5686 -31.9912 28.5686 24.6578 -5.50003 61.1666V61.1666C-39.5687 97.6755 -39.5687 154.324 -5.50004 190.833V190.833C28.5686 227.342 28.5686 283.991 -5.50004 320.5V320.5C-39.5687 357.009 -39.5687 413.658 -5.50005 450.167V450.167C28.5686 486.675 28.5686 543.324 -5.50006 579.833V579.833C-39.5687 616.342 -39.5687 672.991 -5.50006 709.5V709.5C28.5686 746.009 28.5686 802.658 -5.50007 839.167L-66.0001 904" stroke="#FFE6D9" stroke-width="10"/>
<path d="M-7 -652L53.5 -587.167C87.5686 -550.658 87.5686 -494.009 53.5 -457.5V-457.5C19.4313 -420.991 19.4313 -364.342 53.5 -327.833V-327.833C87.5686 -291.325 87.5686 -234.676 53.5 -198.167V-198.167C19.4313 -161.658 19.4313 -105.009 53.5 -68.5V-68.5C87.5686 -31.9912 87.5686 24.6578 53.5 61.1666V61.1666C19.4313 97.6755 19.4313 154.324 53.5 190.833V190.833C87.5686 227.342 87.5686 283.991 53.5 320.5V320.5C19.4313 357.009 19.4313 413.658 53.5 450.167V450.167C87.5686 486.675 87.5686 543.324 53.4999 579.833V579.833C19.4313 616.342 19.4313 672.991 53.4999 709.5V709.5C87.5686 746.009 87.5686 802.658 53.4999 839.167L-7.00007 904" stroke="#FFE6D9" stroke-width="10"/>
<path d="M52 -652L113 -587.167C147.274 -550.739 147.274 -493.928 113 -457.5V-457.5C78.7261 -421.072 78.7261 -364.261 113 -327.833V-327.833C147.274 -291.406 147.274 -234.594 113 -198.167V-198.167C78.7261 -161.739 78.7261 -104.928 113 -68.5V-68.5C147.274 -32.0723 147.274 24.7389 113 61.1666V61.1666C78.7261 97.5943 78.7261 154.406 113 190.833V190.833C147.274 227.261 147.274 284.072 113 320.5V320.5C78.7261 356.928 78.7261 413.739 113 450.167V450.167C147.274 486.594 147.274 543.406 113 579.833V579.833C78.7261 616.261 78.7261 673.072 113 709.5V709.5C147.274 745.928 147.274 802.739 113 839.167L51.9999 904" stroke="#FFE6D9" stroke-width="10"/>
<path d="M112 -652L173 -587.167C207.274 -550.739 207.274 -493.928 173 -457.5V-457.5C138.726 -421.072 138.726 -364.261 173 -327.833V-327.833C207.274 -291.406 207.274 -234.594 173 -198.167V-198.167C138.726 -161.739 138.726 -104.928 173 -68.5V-68.5C207.274 -32.0723 207.274 24.7389 173 61.1666V61.1666C138.726 97.5943 138.726 154.406 173 190.833V190.833C207.274 227.261 207.274 284.072 173 320.5V320.5C138.726 356.928 138.726 413.739 173 450.167V450.167C207.274 486.594 207.274 543.406 173 579.833V579.833C138.726 616.261 138.726 673.072 173 709.5V709.5C207.274 745.928 207.274 802.739 173 839.167L112 904" stroke="#FFE6D9" stroke-width="10"/>
<path d="M172 -652L233 -587.167C267.274 -550.739 267.274 -493.928 233 -457.5V-457.5C198.726 -421.072 198.726 -364.261 233 -327.833V-327.833C267.274 -291.406 267.274 -234.594 233 -198.167V-198.167C198.726 -161.739 198.726 -104.928 233 -68.5V-68.5C267.274 -32.0723 267.274 24.7389 233 61.1666V61.1666C198.726 97.5943 198.726 154.406 233 190.833V190.833C267.274 227.261 267.274 284.072 233 320.5V320.5C198.726 356.928 198.726 413.739 233 450.167V450.167C267.274 486.594 267.274 543.406 233 579.833V579.833C198.726 616.261 198.726 673.072 233 709.5V709.5C267.274 745.928 267.274 802.739 233 839.167L172 904" stroke="#FFE6D9" stroke-width="10"/>
<path d="M232 -652L292.5 -587.167C326.569 -550.658 326.569 -494.009 292.5 -457.5V-457.5C258.431 -420.991 258.431 -364.342 292.5 -327.833V-327.833C326.569 -291.325 326.569 -234.676 292.5 -198.167V-198.167C258.431 -161.658 258.431 -105.009 292.5 -68.5V-68.5C326.569 -31.9912 326.569 24.6578 292.5 61.1666V61.1666C258.431 97.6755 258.431 154.324 292.5 190.833V190.833C326.569 227.342 326.569 283.991 292.5 320.5V320.5C258.431 357.009 258.431 413.658 292.5 450.167V450.167C326.569 486.675 326.569 543.324 292.5 579.833V579.833C258.431 616.342 258.431 672.991 292.5 709.5V709.5C326.569 746.009 326.569 802.658 292.5 839.167L232 904" stroke="#FFE6D9" stroke-width="10"/>
<path d="M291 -652L351.5 -587.167C385.569 -550.658 385.569 -494.009 351.5 -457.5V-457.5C317.431 -420.991 317.431 -364.342 351.5 -327.833V-327.833C385.569 -291.325 385.569 -234.676 351.5 -198.167V-198.167C317.431 -161.658 317.431 -105.009 351.5 -68.5V-68.5C385.569 -31.9912 385.569 24.6578 351.5 61.1666V61.1666C317.431 97.6755 317.431 154.324 351.5 190.833V190.833C385.569 227.342 385.569 283.991 351.5 320.5V320.5C317.431 357.009 317.431 413.658 351.5 450.167V450.167C385.569 486.675 385.569 543.324 351.5 579.833V579.833C317.431 616.342 317.431 672.991 351.5 709.5V709.5C385.569 746.009 385.569 802.658 351.5 839.167L291 904" stroke="#FFE6D9" stroke-width="10"/>
</g>
</svg>
