<svg width="345" height="345" viewBox="0 0 345 345" fill="none" xmlns="http://www.w3.org/2000/svg">
<rect width="345" height="345" rx="172.5" fill="#FFC8AD"/>
<mask id="mask0_3_191" style="mask-type:alpha" maskUnits="userSpaceOnUse" x="0" y="0" width="345" height="345">
<rect width="345" height="345" rx="172.5" fill="#FFD7FF"/>
</mask>
<g mask="url(#mask0_3_191)">
<path d="M-605 425L-540.167 364C-503.739 329.726 -446.928 329.726 -410.5 364V364C-374.072 398.274 -317.261 398.274 -280.833 364V364C-244.406 329.726 -187.594 329.726 -151.167 364V364C-114.739 398.274 -57.9277 398.274 -21.5 364V364C14.9277 329.726 71.7389 329.726 108.167 364V364C144.594 398.274 201.406 398.274 237.833 364V364C274.261 329.726 331.072 329.726 367.5 364V364C403.928 398.274 460.739 398.274 497.167 364V364C533.594 329.726 590.406 329.726 626.833 364V364C663.261 398.274 720.072 398.274 756.5 364V364C792.928 329.726 849.739 329.726 886.167 364L951 425" stroke="#FFE1D2" stroke-width="10"/>
<path d="M-605 365L-540.167 304.5C-503.658 270.431 -447.009 270.431 -410.5 304.5V304.5C-373.991 338.569 -317.342 338.569 -280.833 304.5V304.5C-244.325 270.431 -187.676 270.431 -151.167 304.5V304.5C-114.658 338.569 -58.0088 338.569 -21.5 304.5V304.5C15.0088 270.431 71.6578 270.431 108.167 304.5V304.5C144.675 338.569 201.324 338.569 237.833 304.5V304.5C274.342 270.431 330.991 270.431 367.5 304.5V304.5C404.009 338.569 460.658 338.569 497.167 304.5V304.5C533.675 270.431 590.324 270.431 626.833 304.5V304.5C663.342 338.569 719.991 338.569 756.5 304.5V304.5C793.009 270.431 849.658 270.431 886.167 304.5L951 365" stroke="#FFE1D2" stroke-width="10"/>
<path d="M-605 306L-540.167 245.5C-503.658 211.431 -447.009 211.431 -410.5 245.5V245.5C-373.991 279.569 -317.342 279.569 -280.833 245.5V245.5C-244.325 211.431 -187.676 211.431 -151.167 245.5V245.5C-114.658 279.569 -58.0088 279.569 -21.5 245.5V245.5C15.0088 211.431 71.6578 211.431 108.167 245.5V245.5C144.675 279.569 201.324 279.569 237.833 245.5V245.5C274.342 211.431 330.991 211.431 367.5 245.5V245.5C404.009 279.569 460.658 279.569 497.167 245.5V245.5C533.675 211.431 590.324 211.431 626.833 245.5V245.5C663.342 279.569 719.991 279.569 756.5 245.5V245.5C793.009 211.431 849.658 211.431 886.167 245.5L951 306" stroke="#FFE1D2" stroke-width="10"/>
<path d="M-605 247L-540.167 186C-503.739 151.726 -446.928 151.726 -410.5 186V186C-374.072 220.274 -317.261 220.274 -280.833 186V186C-244.406 151.726 -187.594 151.726 -151.167 186V186C-114.739 220.274 -57.9277 220.274 -21.5 186V186C14.9277 151.726 71.7389 151.726 108.167 186V186C144.594 220.274 201.406 220.274 237.833 186V186C274.261 151.726 331.072 151.726 367.5 186V186C403.928 220.274 460.739 220.274 497.167 186V186C533.594 151.726 590.406 151.726 626.833 186V186C663.261 220.274 720.072 220.274 756.5 186V186C792.928 151.726 849.739 151.726 886.167 186L951 247" stroke="#FFE1D2" stroke-width="10"/>
<path d="M-605 187L-540.167 126C-503.739 91.7261 -446.928 91.7261 -410.5 126V126C-374.072 160.274 -317.261 160.274 -280.833 126V126C-244.406 91.7261 -187.594 91.7261 -151.167 126V126C-114.739 160.274 -57.9277 160.274 -21.5 126V126C14.9277 91.7261 71.7389 91.7261 108.167 126V126C144.594 160.274 201.406 160.274 237.833 126V126C274.261 91.7261 331.072 91.7261 367.5 126V126C403.928 160.274 460.739 160.274 497.167 126V126C533.594 91.7261 590.406 91.7261 626.833 126V126C663.261 160.274 720.072 160.274 756.5 126V126C792.928 91.7261 849.739 91.7261 886.167 126L951 187" stroke="#FFE1D2" stroke-width="10"/>
<path d="M-605 127L-540.167 66C-503.739 31.7261 -446.928 31.7261 -410.5 66V66C-374.072 100.274 -317.261 100.274 -280.833 66V66C-244.406 31.7261 -187.594 31.7261 -151.167 66V66C-114.739 100.274 -57.9277 100.274 -21.5 66V66C14.9277 31.7261 71.7389 31.7261 108.167 66V66C144.594 100.274 201.406 100.274 237.833 66V66C274.261 31.7261 331.072 31.7261 367.5 66V66C403.928 100.274 460.739 100.274 497.167 66V66C533.594 31.7261 590.406 31.7261 626.833 66V66C663.261 100.274 720.072 100.274 756.5 66V66C792.928 31.7261 849.739 31.7261 886.167 66L951 127" stroke="#FFE1D2" stroke-width="10"/>
<path d="M-605 67L-540.167 6.5C-503.658 -27.5686 -447.009 -27.5686 -410.5 6.5V6.5C-373.991 40.5686 -317.342 40.5686 -280.833 6.5V6.5C-244.325 -27.5686 -187.676 -27.5686 -151.167 6.5V6.5C-114.658 40.5686 -58.0088 40.5686 -21.5 6.5V6.5C15.0088 -27.5686 71.6578 -27.5686 108.167 6.5V6.5C144.675 40.5686 201.324 40.5686 237.833 6.5V6.5C274.342 -27.5686 330.991 -27.5686 367.5 6.5V6.5C404.009 40.5686 460.658 40.5686 497.167 6.5V6.5C533.675 -27.5686 590.324 -27.5686 626.833 6.5V6.5C663.342 40.5686 719.991 40.5686 756.5 6.5V6.5C793.009 -27.5686 849.658 -27.5686 886.167 6.5L951 67" stroke="#FFE1D2" stroke-width="10"/>
<path d="M-605 8L-540.167 -52.5C-503.658 -86.5686 -447.009 -86.5686 -410.5 -52.5V-52.5C-373.991 -18.4314 -317.342 -18.4314 -280.833 -52.5V-52.5C-244.325 -86.5686 -187.676 -86.5686 -151.167 -52.5V-52.5C-114.658 -18.4314 -58.0088 -18.4314 -21.5 -52.5V-52.5C15.0088 -86.5686 71.6578 -86.5686 108.167 -52.5V-52.5C144.675 -18.4314 201.324 -18.4314 237.833 -52.5V-52.5C274.342 -86.5686 330.991 -86.5686 367.5 -52.5V-52.5C404.009 -18.4314 460.658 -18.4314 497.167 -52.5V-52.5C533.675 -86.5686 590.324 -86.5686 626.833 -52.5V-52.5C663.342 -18.4314 719.991 -18.4314 756.5 -52.5V-52.5C793.009 -86.5686 849.658 -86.5686 886.167 -52.5L951 8" stroke="#FFE1D2" stroke-width="10"/>
</g>
</svg>
