<svg width="345" height="345" viewBox="0 0 345 345" fill="none" xmlns="http://www.w3.org/2000/svg">
<rect width="345" height="345" rx="172.5" fill="#FFC8AD"/>
<mask id="mask0_24_35" style="mask-type:alpha" maskUnits="userSpaceOnUse" x="0" y="0" width="345" height="345">
<rect width="345" height="345" rx="172.5" fill="#FFD7FF"/>
</mask>
<g mask="url(#mask0_24_35)">
<path d="M-165.704 887.554L-162.994 798.576C-161.471 748.583 -121.299 708.411 -71.3054 706.888V706.888C-21.3119 705.365 18.8598 665.194 20.3828 615.2V615.2C21.9057 565.207 62.0774 525.035 112.071 523.512V523.512C162.064 521.989 202.236 481.817 203.759 431.824V431.824C205.282 381.83 245.454 341.659 295.447 340.136V340.136C345.441 338.613 385.612 298.441 387.135 248.447V248.447C388.658 198.454 428.83 158.282 478.824 156.759V156.759C528.817 155.236 568.989 115.065 570.512 65.071V65.071C572.035 15.0775 612.206 -25.0942 662.2 -26.6172V-26.6172C712.194 -28.1401 752.365 -68.3118 753.888 -118.305V-118.305C755.411 -168.299 795.583 -208.471 845.576 -209.993L934.554 -212.704" stroke="#FFB892" stroke-width="10"/>
<path d="M-208.131 845.128L-205.066 756.504C-203.341 706.598 -163.284 666.541 -113.378 664.815V664.815C-63.4725 663.09 -23.4156 623.033 -21.6901 573.127V573.127C-19.9646 523.221 20.0923 483.165 69.9981 481.439V481.439C119.904 479.714 159.961 439.657 161.686 389.751V389.751C163.412 339.845 203.469 299.788 253.374 298.063V298.063C303.28 296.337 343.337 256.28 345.063 206.375V206.375C346.788 156.469 386.845 116.412 436.751 114.686V114.686C486.657 112.961 526.713 72.904 528.439 22.9982V22.9982C530.164 -26.9076 570.221 -66.9645 620.127 -68.69V-68.69C670.033 -70.4155 710.09 -110.472 711.815 -160.378V-160.378C713.541 -210.284 753.598 -250.341 803.503 -252.066L892.128 -255.13" stroke="#FFB892" stroke-width="10"/>
<path d="M-249.85 803.408L-246.786 714.784C-245.06 664.878 -205.003 624.822 -155.098 623.096V623.096C-105.192 621.371 -65.1349 581.314 -63.4094 531.408V531.408C-61.6839 481.502 -21.627 441.445 28.2788 439.72V439.72C78.1846 437.994 118.241 397.937 119.967 348.032V348.032C121.692 298.126 161.749 258.069 211.655 256.343V256.343C261.561 254.618 301.618 214.561 303.343 164.655V164.655C305.069 114.749 345.126 74.6925 395.031 72.967V72.967C444.937 71.2416 484.994 31.1847 486.72 -18.7211V-18.7211C488.445 -68.6269 528.502 -108.684 578.408 -110.409V-110.409C628.314 -112.135 668.371 -152.192 670.096 -202.097V-202.097C671.821 -252.003 711.878 -292.06 761.784 -293.786L850.408 -296.85" stroke="#FFB892" stroke-width="10"/>
<path d="M-291.569 761.689L-288.859 672.711C-287.336 622.718 -247.164 582.546 -197.17 581.023V581.023C-147.177 579.5 -107.005 539.329 -105.482 489.335V489.335C-103.959 439.341 -63.7876 399.17 -13.7941 397.647V397.647C36.1995 396.124 76.3711 355.952 77.8941 305.959V305.959C79.4171 255.965 119.589 215.794 169.582 214.271V214.271C219.576 212.748 259.747 172.576 261.27 122.582V122.582C262.793 72.5888 302.965 32.4172 352.959 30.8942V30.8942C402.952 29.3712 443.124 -10.8004 444.647 -60.794V-60.794C446.17 -110.788 486.341 -150.959 536.335 -152.482V-152.482C586.329 -154.005 626.5 -194.177 628.023 -244.17V-244.17C629.546 -294.164 669.718 -334.336 719.711 -335.859L808.689 -338.569" stroke="#FFB892" stroke-width="10"/>
<path d="M-333.996 719.263L-331.285 630.285C-329.762 580.291 -289.59 540.12 -239.597 538.597V538.597C-189.603 537.074 -149.432 496.902 -147.909 446.909V446.909C-146.386 396.915 -106.214 356.743 -56.2205 355.22V355.22C-6.22693 353.697 33.9447 313.526 35.4677 263.532V263.532C36.9907 213.539 77.1623 173.367 127.156 171.844V171.844C177.149 170.321 217.321 130.15 218.844 80.156V80.156C220.367 30.1624 260.539 -10.0092 310.532 -11.5322V-11.5322C360.526 -13.0552 400.697 -53.2268 402.22 -103.22V-103.22C403.743 -153.214 443.915 -193.386 493.909 -194.909V-194.909C543.902 -196.432 584.074 -236.603 585.597 -286.597V-286.597C587.12 -336.59 627.291 -376.762 677.285 -378.285L766.263 -380.995" stroke="#FFB892" stroke-width="10"/>
<path d="M-376.422 676.836L-373.711 587.859C-372.188 537.865 -332.017 497.693 -282.023 496.17V496.17C-232.03 494.647 -191.858 454.476 -190.335 404.482V404.482C-188.812 354.489 -148.64 314.317 -98.6469 312.794V312.794C-48.6533 311.271 -8.4817 271.099 -6.95871 221.106V221.106C-5.43573 171.112 34.7359 130.941 84.7295 129.418V129.418C134.723 127.895 174.895 87.7231 176.418 37.7296V37.7296C177.941 -12.264 218.112 -52.4356 268.106 -53.9586V-53.9586C318.099 -55.4816 358.271 -95.6532 359.794 -145.647V-145.647C361.317 -195.64 401.489 -235.812 451.482 -237.335V-237.335C501.476 -238.858 541.647 -279.03 543.17 -329.023V-329.023C544.693 -379.017 584.865 -419.188 634.858 -420.711L723.836 -423.422" stroke="#FFB892" stroke-width="10"/>
<path d="M-418.848 634.41L-415.784 545.786C-414.059 495.88 -374.002 455.823 -324.096 454.098V454.098C-274.19 452.372 -234.133 412.315 -232.408 362.409V362.409C-230.682 312.504 -190.626 272.447 -140.72 270.721V270.721C-90.8139 268.996 -50.757 228.939 -49.0316 179.033V179.033C-47.3061 129.127 -7.2492 89.0703 42.6566 87.3449V87.3449C92.5624 85.6194 132.619 45.5625 134.345 -4.3433V-4.3433C136.07 -54.2491 176.127 -94.306 226.033 -96.0315V-96.0315C275.939 -97.7569 315.996 -137.814 317.721 -187.72V-187.72C319.447 -237.625 359.503 -277.682 409.409 -279.408V-279.408C459.315 -281.133 499.372 -321.19 501.097 -371.096V-371.096C502.823 -421.002 542.88 -461.059 592.786 -462.784L681.41 -465.848" stroke="#FFB892" stroke-width="10"/>
<path d="M-460.568 592.69L-457.504 504.066C-455.778 454.161 -415.721 414.104 -365.815 412.378V412.378C-315.91 410.653 -275.853 370.596 -274.127 320.69V320.69C-272.402 270.784 -232.345 230.727 -182.439 229.002V229.002C-132.533 227.276 -92.4763 187.22 -90.7509 137.314V137.314C-89.0254 87.4079 -48.9685 47.351 0.937308 45.6256V45.6256C50.8431 43.9001 90.9 3.8432 92.6255 -46.0626V-46.0626C94.3509 -95.9684 134.408 -136.025 184.314 -137.751V-137.751C234.219 -139.476 274.276 -179.533 276.002 -229.439V-229.439C277.727 -279.345 317.784 -319.402 367.69 -321.127V-321.127C417.596 -322.853 457.653 -362.909 459.378 -412.815V-412.815C461.104 -462.721 501.161 -502.778 551.066 -504.503L639.69 -507.568" stroke="#FFB892" stroke-width="10"/>
<path d="M-502.287 550.971L-499.576 461.994C-498.053 412 -457.882 371.828 -407.888 370.305V370.305C-357.895 368.782 -317.723 328.611 -316.2 278.617V278.617C-314.677 228.624 -274.505 188.452 -224.512 186.929V186.929C-174.518 185.406 -134.347 145.234 -132.824 95.2409V95.2409C-131.301 45.2473 -91.1291 5.0757 -41.1355 3.55272V3.55272C8.858 2.02974 49.0296 -38.1419 50.5526 -88.1355V-88.1355C52.0756 -138.129 92.2473 -178.301 142.241 -179.824V-179.824C192.234 -181.347 232.406 -221.518 233.929 -271.512V-271.512C235.452 -321.505 275.624 -361.677 325.617 -363.2V-363.2C375.611 -364.723 415.782 -404.895 417.305 -454.888V-454.888C418.828 -504.882 459 -545.053 508.993 -546.576L597.971 -549.287" stroke="#FFB892" stroke-width="10"/>
</g>
</svg>
