<svg width="20" height="20" viewBox="0 0 20 20" fill="none" xmlns="http://www.w3.org/2000/svg">
<path d="M11.4999 4.50003L18.4999 11.5L14.4999 15.5M1.49988 18.5L3.26788 16.732M3.32799 16.672C3.59061 16.9347 3.9024 17.1431 4.24557 17.2853C4.58873 17.4275 4.95654 17.5006 5.32799 17.5006C5.69944 17.5006 6.06726 17.4275 6.41042 17.2853C6.75358 17.1431 7.06538 16.9347 7.32799 16.672L17.914 6.08604C18.0998 5.90031 18.2472 5.6798 18.3477 5.4371C18.4483 5.19439 18.5001 4.93425 18.5001 4.67154C18.5001 4.40883 18.4483 4.14869 18.3477 3.90599C18.2472 3.66328 18.0998 3.44277 17.914 3.25704L16.743 2.08604C16.5573 1.90024 16.3368 1.75285 16.094 1.65229C15.8513 1.55173 15.5912 1.49997 15.3285 1.49997C15.0658 1.49997 14.8056 1.55173 14.5629 1.65229C14.3202 1.75285 14.0997 1.90024 13.914 2.08604L3.32799 12.672C3.0653 12.9347 2.85691 13.2465 2.71474 13.5896C2.57257 13.9328 2.49939 14.3006 2.49939 14.672C2.49939 15.0435 2.57257 15.4113 2.71474 15.7545C2.85691 16.0976 3.0653 16.4094 3.32799 16.672Z" stroke="white" stroke-width="2" stroke-linecap="round" stroke-linejoin="round"/>
</svg>
